<svg width="294" height="40" viewBox="0 0 294 40" fill="none" xmlns="http://www.w3.org/2000/svg">
<path d="M13.248 4.332C16.584 4.332 19.452 5.388 21.852 7.5L18.576 10.92C17.664 10.272 16.836 9.804 16.092 9.516C15.372 9.204 14.544 9.048 13.608 9.048C11.808 9.048 10.392 9.744 9.36 11.136C8.352 12.528 7.848 14.652 7.848 17.508C7.848 19.596 8.016 21.252 8.352 22.476C8.688 23.676 9.192 24.54 9.864 25.068C10.56 25.596 11.448 25.86 12.528 25.86C13.608 25.86 14.592 25.632 15.48 25.176V20.028H12.636L11.988 15.456H21.924V27.912C20.628 28.776 19.164 29.448 17.532 29.928C15.9 30.408 14.292 30.648 12.708 30.648C4.884 30.648 0.972 26.256 0.972 17.472C0.972 14.736 1.5 12.384 2.556 10.416C3.636 8.424 5.1 6.912 6.948 5.88C8.796 4.848 10.896 4.332 13.248 4.332ZM41.1629 24.096C41.1629 24.792 41.2469 25.308 41.4149 25.644C41.6069 25.98 41.9309 26.232 42.3869 26.4L41.0909 30.54C39.8669 30.444 38.8589 30.192 38.0669 29.784C37.2989 29.376 36.6749 28.728 36.1949 27.84C34.9709 29.712 33.0389 30.648 30.3989 30.648C28.5029 30.648 26.9789 30.096 25.8269 28.992C24.6989 27.864 24.1349 26.412 24.1349 24.636C24.1349 22.524 24.9149 20.904 26.4749 19.776C28.0349 18.648 30.2909 18.084 33.2429 18.084H34.8989V17.436C34.8989 16.404 34.6829 15.708 34.2509 15.348C33.8189 14.964 33.0389 14.772 31.9109 14.772C31.3109 14.772 30.5549 14.868 29.6429 15.06C28.7549 15.228 27.8429 15.468 26.9069 15.78L25.5029 11.64C26.6549 11.16 27.8909 10.8 29.2109 10.56C30.5309 10.296 31.7549 10.164 32.8829 10.164C35.7629 10.164 37.8629 10.74 39.1829 11.892C40.5029 13.02 41.1629 14.76 41.1629 17.112V24.096ZM32.3429 26.148C32.8709 26.148 33.3509 26.016 33.7829 25.752C34.2389 25.464 34.6109 25.08 34.8989 24.6V21.504H33.8189C32.6669 21.504 31.8149 21.72 31.2629 22.152C30.7109 22.56 30.4349 23.184 30.4349 24.024C30.4349 24.672 30.6029 25.188 30.9389 25.572C31.2749 25.956 31.7429 26.148 32.3429 26.148ZM56.5639 10.164C58.8439 10.164 60.5959 11.064 61.8199 12.864C63.0439 14.664 63.6559 17.184 63.6559 20.424C63.6559 22.392 63.3439 24.156 62.7199 25.716C62.1199 27.252 61.2439 28.464 60.0919 29.352C58.9399 30.216 57.5719 30.648 55.9879 30.648C54.9319 30.648 53.9719 30.432 53.1079 30C52.2679 29.592 51.5599 29.004 50.9839 28.236L50.7319 30H45.0439V3.252L51.4519 2.604V12.684C52.0039 11.916 52.7359 11.304 53.6479 10.848C54.5599 10.392 55.5319 10.164 56.5639 10.164ZM54.0799 26.04C55.0159 26.04 55.7359 25.608 56.2399 24.744C56.7679 23.88 57.0319 22.44 57.0319 20.424C57.0319 18.264 56.7919 16.788 56.3119 15.996C55.8559 15.204 55.1959 14.808 54.3319 14.808C53.2039 14.808 52.2439 15.48 51.4519 16.824V24.42C52.0999 25.5 52.9759 26.04 54.0799 26.04ZM77.5755 10.236C78.1995 10.236 78.8475 10.344 79.5195 10.56L78.4755 16.752C77.8515 16.56 77.2755 16.464 76.7475 16.464C75.6675 16.464 74.8395 16.836 74.2635 17.58C73.7115 18.3 73.2795 19.404 72.9675 20.892V30H66.5595V10.812H72.1395L72.7155 14.448C73.0995 13.176 73.7355 12.156 74.6235 11.388C75.5355 10.62 76.5195 10.236 77.5755 10.236ZM87.5573 10.812V30H81.1493V10.812H87.5573ZM84.3533 0.479998C85.4333 0.479998 86.3093 0.815998 86.9813 1.488C87.6773 2.16 88.0253 3 88.0253 4.008C88.0253 5.016 87.6773 5.856 86.9813 6.528C86.3093 7.2 85.4333 7.536 84.3533 7.536C83.2733 7.536 82.3853 7.2 81.6893 6.528C81.0173 5.856 80.6813 5.016 80.6813 4.008C80.6813 3 81.0173 2.16 81.6893 1.488C82.3853 0.815998 83.2733 0.479998 84.3533 0.479998ZM108.698 20.1C108.698 20.244 108.662 20.964 108.59 22.26H96.8535C97.0215 23.724 97.4295 24.732 98.0775 25.284C98.7495 25.812 99.6975 26.076 100.922 26.076C101.642 26.076 102.35 25.944 103.046 25.68C103.766 25.392 104.546 24.96 105.386 24.384L107.978 27.912C106.97 28.752 105.818 29.424 104.522 29.928C103.226 30.408 101.822 30.648 100.31 30.648C97.0455 30.648 94.5615 29.736 92.8575 27.912C91.1775 26.064 90.3375 23.592 90.3375 20.496C90.3375 18.552 90.6855 16.8 91.3815 15.24C92.1015 13.68 93.1575 12.444 94.5495 11.532C95.9415 10.62 97.6215 10.164 99.5895 10.164C102.398 10.164 104.618 11.04 106.25 12.792C107.882 14.52 108.698 16.956 108.698 20.1ZM102.398 18.3C102.374 17.028 102.158 16.044 101.75 15.348C101.342 14.652 100.658 14.304 99.6975 14.304C98.8095 14.304 98.1375 14.616 97.6815 15.24C97.2255 15.864 96.9375 16.956 96.8175 18.516H102.398V18.3ZM116.75 30.648C114.95 30.648 113.558 30.144 112.574 29.136C111.59 28.128 111.098 26.676 111.098 24.78V3.252L117.506 2.604V24.564C117.506 25.26 117.818 25.608 118.442 25.608C118.706 25.608 118.982 25.56 119.27 25.464L120.458 30C119.474 30.432 118.238 30.648 116.75 30.648ZM140.955 4.332C142.539 4.332 143.967 4.572 145.239 5.052C146.511 5.532 147.699 6.24 148.803 7.176L145.671 10.884C144.927 10.332 144.207 9.912 143.511 9.624C142.815 9.336 142.071 9.192 141.279 9.192C139.695 9.192 138.459 9.876 137.571 11.244C136.683 12.612 136.239 14.676 136.239 17.436C136.239 20.196 136.683 22.248 137.571 23.592C138.483 24.936 139.743 25.608 141.351 25.608C142.215 25.608 143.007 25.44 143.727 25.104C144.471 24.744 145.275 24.228 146.139 23.556L149.091 27.3C148.107 28.284 146.919 29.088 145.527 29.712C144.159 30.336 142.671 30.648 141.063 30.648C138.687 30.648 136.611 30.144 134.835 29.136C133.083 28.104 131.727 26.604 130.767 24.636C129.807 22.644 129.327 20.244 129.327 17.436C129.327 14.7 129.819 12.348 130.803 10.38C131.787 8.412 133.155 6.912 134.907 5.88C136.659 4.848 138.675 4.332 140.955 4.332ZM159.012 10.164C162.012 10.164 164.364 11.064 166.068 12.864C167.772 14.664 168.624 17.184 168.624 20.424C168.624 22.488 168.24 24.288 167.472 25.824C166.704 27.36 165.588 28.548 164.124 29.388C162.684 30.228 160.98 30.648 159.012 30.648C156.012 30.648 153.66 29.748 151.956 27.948C150.252 26.148 149.4 23.628 149.4 20.388C149.4 18.324 149.784 16.524 150.552 14.988C151.32 13.452 152.424 12.264 153.864 11.424C155.328 10.584 157.044 10.164 159.012 10.164ZM159.012 14.808C157.98 14.808 157.212 15.264 156.708 16.176C156.228 17.064 155.988 18.468 155.988 20.388C155.988 22.38 156.228 23.82 156.708 24.708C157.212 25.572 157.98 26.004 159.012 26.004C160.044 26.004 160.8 25.56 161.28 24.672C161.784 23.76 162.036 22.344 162.036 20.424C162.036 18.456 161.784 17.028 161.28 16.14C160.8 15.252 160.044 14.808 159.012 14.808ZM183.275 10.164C184.907 10.164 186.191 10.668 187.127 11.676C188.063 12.684 188.531 14.1 188.531 15.924V30H182.123V17.076C182.123 16.236 182.003 15.66 181.763 15.348C181.523 15.012 181.163 14.844 180.683 14.844C179.675 14.844 178.715 15.576 177.803 17.04V30H171.395V10.812H176.975L177.443 12.972C178.307 12.012 179.207 11.304 180.143 10.848C181.079 10.392 182.123 10.164 183.275 10.164ZM200.778 10.164C202.17 10.164 203.418 10.368 204.522 10.776C205.626 11.184 206.634 11.796 207.546 12.612L204.846 16.356C203.742 15.468 202.578 15.024 201.354 15.024C200.178 15.024 199.29 15.456 198.69 16.32C198.09 17.16 197.79 18.564 197.79 20.532C197.79 22.452 198.09 23.796 198.69 24.564C199.29 25.308 200.154 25.68 201.282 25.68C201.882 25.68 202.434 25.584 202.938 25.392C203.442 25.2 204.054 24.876 204.774 24.42L207.546 28.344C205.698 29.88 203.502 30.648 200.958 30.648C198.942 30.648 197.19 30.228 195.702 29.388C194.238 28.548 193.11 27.372 192.318 25.86C191.526 24.324 191.13 22.56 191.13 20.568C191.13 18.552 191.526 16.764 192.318 15.204C193.11 13.62 194.226 12.384 195.666 11.496C197.13 10.608 198.834 10.164 200.778 10.164ZM226.014 20.1C226.014 20.244 225.978 20.964 225.906 22.26H214.17C214.338 23.724 214.746 24.732 215.394 25.284C216.066 25.812 217.014 26.076 218.238 26.076C218.958 26.076 219.666 25.944 220.362 25.68C221.082 25.392 221.862 24.96 222.702 24.384L225.294 27.912C224.286 28.752 223.134 29.424 221.838 29.928C220.542 30.408 219.138 30.648 217.626 30.648C214.362 30.648 211.878 29.736 210.174 27.912C208.494 26.064 207.654 23.592 207.654 20.496C207.654 18.552 208.002 16.8 208.698 15.24C209.418 13.68 210.474 12.444 211.866 11.532C213.258 10.62 214.938 10.164 216.906 10.164C219.714 10.164 221.934 11.04 223.566 12.792C225.198 14.52 226.014 16.956 226.014 20.1ZM219.714 18.3C219.69 17.028 219.474 16.044 219.066 15.348C218.658 14.652 217.974 14.304 217.014 14.304C216.126 14.304 215.454 14.616 214.998 15.24C214.542 15.864 214.254 16.956 214.134 18.516H219.714V18.3ZM235.003 10.812V30H228.595V10.812H235.003ZM231.799 0.479998C232.879 0.479998 233.755 0.815998 234.427 1.488C235.123 2.16 235.471 3 235.471 4.008C235.471 5.016 235.123 5.856 234.427 6.528C233.755 7.2 232.879 7.536 231.799 7.536C230.719 7.536 229.831 7.2 229.135 6.528C228.463 5.856 228.127 5.016 228.127 4.008C228.127 3 228.463 2.16 229.135 1.488C229.831 0.815998 230.719 0.479998 231.799 0.479998ZM254.199 28.344C252.663 29.64 250.827 30.396 248.691 30.612V31.62C249.963 31.788 250.923 32.184 251.571 32.808C252.219 33.456 252.543 34.308 252.543 35.364C252.543 36.636 252.039 37.668 251.031 38.46C250.023 39.276 248.655 39.684 246.927 39.684C246.063 39.684 245.259 39.564 244.515 39.324C243.771 39.108 243.147 38.832 242.643 38.496L244.083 35.652C244.827 36.084 245.583 36.3 246.351 36.3C247.455 36.3 248.007 35.964 248.007 35.292C248.007 34.908 247.743 34.62 247.215 34.428C246.687 34.26 245.835 34.176 244.659 34.176L245.127 30.396C242.823 29.94 241.023 28.836 239.727 27.084C238.431 25.332 237.783 23.16 237.783 20.568C237.783 18.552 238.179 16.764 238.971 15.204C239.763 13.62 240.879 12.384 242.319 11.496C243.783 10.608 245.487 10.164 247.431 10.164C248.823 10.164 250.071 10.368 251.175 10.776C252.279 11.184 253.287 11.796 254.199 12.612L251.499 16.356C250.395 15.468 249.231 15.024 248.007 15.024C246.831 15.024 245.943 15.456 245.343 16.32C244.743 17.16 244.443 18.564 244.443 20.532C244.443 22.452 244.743 23.796 245.343 24.564C245.943 25.308 246.807 25.68 247.935 25.68C248.535 25.68 249.087 25.584 249.591 25.392C250.095 25.2 250.707 24.876 251.427 24.42L254.199 28.344ZM271.542 24.096C271.542 24.792 271.626 25.308 271.794 25.644C271.986 25.98 272.31 26.232 272.766 26.4L271.47 30.54C270.246 30.444 269.238 30.192 268.446 29.784C267.678 29.376 267.054 28.728 266.574 27.84C265.35 29.712 263.418 30.648 260.778 30.648C258.882 30.648 257.358 30.096 256.206 28.992C255.078 27.864 254.514 26.412 254.514 24.636C254.514 22.524 255.294 20.904 256.854 19.776C258.414 18.648 260.67 18.084 263.622 18.084H265.278V17.436C265.278 16.404 265.062 15.708 264.63 15.348C264.198 14.964 263.418 14.772 262.29 14.772C261.69 14.772 260.934 14.868 260.022 15.06C259.134 15.228 258.222 15.468 257.286 15.78L255.882 11.64C257.034 11.16 258.27 10.8 259.59 10.56C260.91 10.296 262.134 10.164 263.262 10.164C266.142 10.164 268.242 10.74 269.562 11.892C270.882 13.02 271.542 14.76 271.542 17.112V24.096ZM262.722 26.148C263.25 26.148 263.73 26.016 264.162 25.752C264.618 25.464 264.99 25.08 265.278 24.6V21.504H264.198C263.046 21.504 262.194 21.72 261.642 22.152C261.09 22.56 260.814 23.184 260.814 24.024C260.814 24.672 260.982 25.188 261.318 25.572C261.654 25.956 262.122 26.148 262.722 26.148ZM265.71 7.392C265.158 7.392 264.678 7.308 264.27 7.14C263.886 6.972 263.466 6.732 263.01 6.42C262.77 6.252 262.53 6.108 262.29 5.988C262.05 5.868 261.822 5.808 261.606 5.808C261.174 5.808 260.826 5.928 260.562 6.168C260.298 6.408 260.01 6.804 259.698 7.356L256.602 5.844C257.082 4.524 257.742 3.432 258.582 2.568C259.422 1.704 260.382 1.272 261.462 1.272C262.038 1.272 262.53 1.356 262.938 1.524C263.346 1.692 263.778 1.932 264.234 2.244C264.474 2.412 264.714 2.556 264.954 2.676C265.194 2.796 265.422 2.856 265.638 2.856C266.046 2.856 266.382 2.736 266.646 2.496C266.91 2.256 267.198 1.86 267.51 1.308L270.606 2.82C270.102 4.164 269.43 5.268 268.59 6.132C267.75 6.972 266.79 7.392 265.71 7.392ZM284.063 10.164C287.063 10.164 289.415 11.064 291.119 12.864C292.823 14.664 293.675 17.184 293.675 20.424C293.675 22.488 293.291 24.288 292.523 25.824C291.755 27.36 290.639 28.548 289.175 29.388C287.735 30.228 286.031 30.648 284.063 30.648C281.063 30.648 278.711 29.748 277.007 27.948C275.303 26.148 274.451 23.628 274.451 20.388C274.451 18.324 274.835 16.524 275.603 14.988C276.371 13.452 277.475 12.264 278.915 11.424C280.379 10.584 282.095 10.164 284.063 10.164ZM284.063 14.808C283.031 14.808 282.263 15.264 281.759 16.176C281.279 17.064 281.039 18.468 281.039 20.388C281.039 22.38 281.279 23.82 281.759 24.708C282.263 25.572 283.031 26.004 284.063 26.004C285.095 26.004 285.851 25.56 286.331 24.672C286.835 23.76 287.087 22.344 287.087 20.424C287.087 18.456 286.835 17.028 286.331 16.14C285.851 15.252 285.095 14.808 284.063 14.808Z" fill="black"/>
</svg>
